<svg width="260" height="47" viewBox="0 0 260 47" fill="none" xmlns="http://www.w3.org/2000/svg">
<path d="M29.4062 42.5191C27.1861 42.5191 24.98 41.9984 22.9402 40.97C22.6763 40.8361 22.4171 40.6961 22.1641 40.5483H3.1686C2.33366 40.5483 1.59235 40.0128 1.3308 39.2188C-0.862945 32.5571 -0.331339 25.4389 2.82813 19.1772C5.98681 12.9147 11.395 8.25719 18.0567 6.06267C23.485 4.27517 29.2831 4.7085 34.3864 7.28142C39.4889 9.85511 43.2829 14.262 45.0712 19.6894C48.089 28.856 43.0887 38.7693 33.9229 41.7887C32.4418 42.2769 30.9205 42.5191 29.4062 42.5191ZM26.4278 20.9732C25.8025 20.9732 25.1688 21.0707 24.5435 21.2765C20.3387 22.6617 18.0451 27.2093 19.4294 31.4142C20.3093 34.0831 22.1741 36.2505 24.6828 37.5157C27.1923 38.7824 30.0445 38.9937 32.7119 38.1146C39.851 35.7622 43.7464 28.0404 41.3948 20.9005C39.9307 16.4542 36.8223 12.8443 32.643 10.7357C28.4644 8.62862 23.714 8.27267 19.2669 9.73749C7.98324 13.4549 1.63336 25.339 4.61253 36.6792H17.8439C16.9478 35.4643 16.2413 34.1001 15.7546 32.6244C13.7032 26.393 17.1018 19.6539 23.3333 17.6025C25.8482 16.7737 28.5318 16.9742 30.8934 18.1666C33.2559 19.3583 35.0124 21.398 35.8404 23.9114C36.1754 24.9266 35.6237 26.02 34.6085 26.3535C33.5909 26.6909 32.4991 26.1361 32.1663 25.1216C31.3298 22.585 28.9628 20.9732 26.4278 20.9732Z" fill="#BA68C8"/>
<path d="M67.2052 36.3869C63.9294 36.3869 60.8599 35.7679 57.9969 34.5298C57.6873 34.4008 57.4294 34.1944 57.223 33.9107C57.0167 33.6012 56.9135 33.2788 56.9135 32.9435C56.9135 32.505 57.0554 32.131 57.3391 31.8214C57.6486 31.4861 58.0355 31.3185 58.4998 31.3185C58.7578 31.3185 59.0028 31.37 59.2349 31.4732C61.608 32.5308 64.1486 33.0595 66.857 33.0595C71.3709 33.0595 73.6278 31.5764 73.6278 28.6101C73.6278 27.8363 73.3312 27.1915 72.7379 26.6756C72.1705 26.1597 71.4611 25.7599 70.6099 25.4762C69.7588 25.1667 68.5465 24.8056 66.973 24.3929C64.8838 23.8512 63.1943 23.3353 61.9046 22.8452C60.6149 22.3294 59.5058 21.5685 58.5772 20.5625C57.6486 19.5566 57.1844 18.2153 57.1844 16.5387C57.1844 15.0685 57.5713 13.7401 58.3451 12.5536C59.1189 11.3413 60.2538 10.3869 61.7498 9.69048C63.2717 8.96826 65.0901 8.60715 67.2052 8.60715C70.0425 8.60715 72.609 9.03274 74.9046 9.88393C75.6268 10.1419 75.9879 10.6577 75.9879 11.4316C75.9879 11.8443 75.8461 12.2183 75.5623 12.5536C75.2786 12.8889 74.9046 13.0566 74.4403 13.0566C74.2855 13.0566 74.0792 13.005 73.8213 12.9018C71.8094 12.2054 69.733 11.8571 67.5921 11.8571C65.5544 11.8571 63.8907 12.2441 62.601 13.0179C61.3371 13.7917 60.7052 14.875 60.7052 16.2679C60.7052 17.1964 61.0018 17.9573 61.5951 18.5506C62.2141 19.1181 62.975 19.5694 63.8778 19.9048C64.8064 20.2143 66.0574 20.5496 67.6308 20.9107C69.6685 21.4008 71.3064 21.8909 72.5445 22.381C73.8084 22.871 74.8788 23.6319 75.7558 24.6637C76.6586 25.6954 77.1099 27.0883 77.1099 28.8423C77.1099 30.2867 76.6972 31.5893 75.8719 32.75C75.0465 33.8849 73.8857 34.7748 72.3897 35.4196C70.8937 36.0645 69.1655 36.3869 67.2052 36.3869ZM83.2771 36.1935C82.7871 36.1935 82.3744 36.0258 82.0391 35.6905C81.7037 35.3552 81.5361 34.9425 81.5361 34.4524V9.34227C81.5361 8.85219 81.7037 8.43949 82.0391 8.10417C82.3744 7.74306 82.7871 7.56251 83.2771 7.56251C83.7672 7.56251 84.1799 7.74306 84.5152 8.10417C84.8764 8.43949 85.0569 8.85219 85.0569 9.34227V19.4405C86.0371 18.3571 87.0946 17.4931 88.2295 16.8482C89.3644 16.2034 90.7057 15.881 92.2533 15.881C93.672 15.881 94.8972 16.2163 95.9289 16.8869C96.9865 17.5575 97.7861 18.4732 98.3277 19.6339C98.8952 20.7946 99.1789 22.0714 99.1789 23.4643V34.4524C99.1789 34.9425 98.9984 35.3552 98.6373 35.6905C98.3019 36.0258 97.8892 36.1935 97.3992 36.1935C96.9091 36.1935 96.4964 36.0258 96.1611 35.6905C95.8258 35.3552 95.6581 34.9425 95.6581 34.4524V23.8512C95.6581 20.7044 94.2394 19.131 91.4021 19.131C90.1125 19.131 88.9517 19.4663 87.92 20.1369C86.9141 20.8075 85.9597 21.7103 85.0569 22.8452V34.4524C85.0569 34.9425 84.8764 35.3552 84.5152 35.6905C84.1799 36.0258 83.7672 36.1935 83.2771 36.1935ZM113.935 36.3869C110.788 36.3869 108.324 35.497 106.545 33.7173C104.791 31.9117 103.914 29.3839 103.914 26.1339C103.914 24.3026 104.249 22.6131 104.92 21.0655C105.59 19.5179 106.622 18.2669 108.015 17.3125C109.408 16.3581 111.123 15.881 113.161 15.881C115.069 15.881 116.72 16.3323 118.113 17.2351C119.506 18.1121 120.563 19.2986 121.286 20.7946C122.008 22.2649 122.369 23.877 122.369 25.631C122.369 26.121 122.201 26.5337 121.866 26.869C121.557 27.2044 121.131 27.372 120.589 27.372H107.473C107.68 29.1776 108.35 30.5833 109.485 31.5893C110.62 32.5952 112.206 33.0982 114.244 33.0982C115.327 33.0982 116.269 32.995 117.068 32.7887C117.894 32.5823 118.693 32.2857 119.467 31.8988C119.674 31.7956 119.906 31.744 120.164 31.744C120.576 31.744 120.937 31.8859 121.247 32.1696C121.557 32.4534 121.711 32.8145 121.711 33.253C121.711 33.8204 121.376 34.2976 120.705 34.6845C119.699 35.252 118.706 35.6776 117.726 35.9613C116.746 36.245 115.482 36.3869 113.935 36.3869ZM118.887 24.5089C118.81 23.245 118.474 22.1875 117.881 21.3363C117.313 20.4851 116.604 19.8661 115.753 19.4792C114.902 19.0665 114.038 18.8601 113.161 18.8601C112.284 18.8601 111.42 19.0665 110.568 19.4792C109.717 19.8661 109.008 20.4851 108.44 21.3363C107.873 22.1875 107.551 23.245 107.473 24.5089H118.887ZM128.769 36.1935C128.279 36.1935 127.866 36.0258 127.531 35.6905C127.195 35.3552 127.028 34.9425 127.028 34.4524V9.34227C127.028 8.85219 127.195 8.43949 127.531 8.10417C127.866 7.74306 128.279 7.56251 128.769 7.56251C129.285 7.56251 129.71 7.73016 130.045 8.06548C130.381 8.4008 130.548 8.82639 130.548 9.34227V34.4524C130.548 34.9425 130.368 35.3552 130.007 35.6905C129.671 36.0258 129.259 36.1935 128.769 36.1935ZM138.404 36.1935C137.913 36.1935 137.501 36.0258 137.165 35.6905C136.83 35.3552 136.662 34.9425 136.662 34.4524V9.34227C136.662 8.85219 136.83 8.43949 137.165 8.10417C137.501 7.74306 137.913 7.56251 138.404 7.56251C138.919 7.56251 139.345 7.73016 139.68 8.06548C140.016 8.4008 140.183 8.82639 140.183 9.34227V34.4524C140.183 34.9425 140.003 35.3552 139.642 35.6905C139.306 36.0258 138.894 36.1935 138.404 36.1935ZM156.434 36.3869C153.906 36.3869 151.701 35.4067 149.818 33.4464V34.4524C149.818 34.9425 149.638 35.3552 149.276 35.6905C148.941 36.0258 148.528 36.1935 148.038 36.1935C147.548 36.1935 147.136 36.0258 146.8 35.6905C146.465 35.3552 146.297 34.9425 146.297 34.4524V9.34227C146.297 8.85219 146.465 8.43949 146.8 8.10417C147.136 7.74306 147.548 7.56251 148.038 7.56251C148.554 7.56251 148.98 7.73016 149.315 8.06548C149.65 8.4008 149.818 8.82639 149.818 9.34227V18.8214C151.701 16.8611 153.906 15.881 156.434 15.881C158.033 15.881 159.542 16.2937 160.961 17.1191C162.405 17.9187 163.566 19.1052 164.443 20.6786C165.346 22.2262 165.797 24.0446 165.797 26.1339C165.797 28.2232 165.346 30.0546 164.443 31.628C163.566 33.1756 162.405 34.3621 160.961 35.1875C159.542 35.9871 158.033 36.3869 156.434 36.3869ZM155.931 33.0982C157.84 33.0982 159.375 32.4921 160.535 31.2798C161.696 30.0675 162.276 28.3522 162.276 26.1339C162.276 23.9157 161.696 22.2004 160.535 20.9881C159.375 19.7758 157.84 19.1696 155.931 19.1696C154.745 19.1696 153.623 19.4405 152.565 19.9821C151.533 20.498 150.618 21.1944 149.818 22.0714V30.1964C150.618 31.0734 151.533 31.7827 152.565 32.3244C153.623 32.8403 154.745 33.0982 155.931 33.0982ZM172.447 36.1935C171.957 36.1935 171.544 36.0258 171.208 35.6905C170.873 35.3552 170.706 34.9425 170.706 34.4524V9.34227C170.706 8.85219 170.873 8.43949 171.208 8.10417C171.544 7.74306 171.957 7.56251 172.447 7.56251C172.962 7.56251 173.388 7.73016 173.723 8.06548C174.059 8.4008 174.226 8.82639 174.226 9.34227V34.4524C174.226 34.9425 174.046 35.3552 173.685 35.6905C173.349 36.0258 172.937 36.1935 172.447 36.1935ZM189.046 36.3869C187.06 36.3869 185.319 35.9613 183.822 35.1101C182.326 34.2589 181.166 33.0595 180.34 31.5119C179.541 29.9385 179.141 28.1458 179.141 26.1339C179.141 24.122 179.541 22.3423 180.34 20.7946C181.166 19.2212 182.326 18.0089 183.822 17.1577C185.319 16.3066 187.06 15.881 189.046 15.881C191.006 15.881 192.734 16.3066 194.23 17.1577C195.726 18.0089 196.887 19.2212 197.712 20.7946C198.538 22.3423 198.95 24.122 198.95 26.1339C198.95 28.1458 198.538 29.9385 197.712 31.5119C196.887 33.0595 195.726 34.2589 194.23 35.1101C192.734 35.9613 191.006 36.3869 189.046 36.3869ZM189.046 33.1756C190.103 33.1756 191.109 32.9306 192.064 32.4405C193.044 31.9504 193.843 31.1766 194.462 30.119C195.107 29.0615 195.43 27.7202 195.43 26.0952C195.43 24.496 195.107 23.1677 194.462 22.1101C193.843 21.0526 193.044 20.2917 192.064 19.8274C191.109 19.3373 190.103 19.0923 189.046 19.0923C187.962 19.0923 186.931 19.3373 185.95 19.8274C184.996 20.2917 184.209 21.0526 183.59 22.1101C182.971 23.1677 182.662 24.496 182.662 26.0952C182.662 27.7202 182.971 29.0615 183.59 30.119C184.209 31.1766 184.996 31.9504 185.95 32.4405C186.931 32.9306 187.962 33.1756 189.046 33.1756ZM212.585 36.3869C210.599 36.3869 208.858 35.9613 207.362 35.1101C205.866 34.2589 204.705 33.0595 203.88 31.5119C203.08 29.9385 202.68 28.1458 202.68 26.1339C202.68 24.122 203.08 22.3423 203.88 20.7946C204.705 19.2212 205.866 18.0089 207.362 17.1577C208.858 16.3066 210.599 15.881 212.585 15.881C214.545 15.881 216.273 16.3066 217.769 17.1577C219.265 18.0089 220.426 19.2212 221.252 20.7946C222.077 22.3423 222.49 24.122 222.49 26.1339C222.49 28.1458 222.077 29.9385 221.252 31.5119C220.426 33.0595 219.265 34.2589 217.769 35.1101C216.273 35.9613 214.545 36.3869 212.585 36.3869ZM212.585 33.1756C213.642 33.1756 214.648 32.9306 215.603 32.4405C216.583 31.9504 217.383 31.1766 218.002 30.119C218.646 29.0615 218.969 27.7202 218.969 26.0952C218.969 24.496 218.646 23.1677 218.002 22.1101C217.383 21.0526 216.583 20.2917 215.603 19.8274C214.648 19.3373 213.642 19.0923 212.585 19.0923C211.502 19.0923 210.47 19.3373 209.49 19.8274C208.535 20.2917 207.749 21.0526 207.13 22.1101C206.511 23.1677 206.201 24.496 206.201 26.0952C206.201 27.7202 206.511 29.0615 207.13 30.119C207.749 31.1766 208.535 31.9504 209.49 32.4405C210.47 32.9306 211.502 33.1756 212.585 33.1756ZM229.16 36.1935C228.67 36.1935 228.257 36.0258 227.922 35.6905C227.586 35.3552 227.419 34.9425 227.419 34.4524V17.8542C227.419 17.3641 227.586 16.9514 227.922 16.6161C228.257 16.255 228.67 16.0744 229.16 16.0744C229.65 16.0744 230.063 16.255 230.398 16.6161C230.759 16.9514 230.94 17.3641 230.94 17.8542V19.4405C231.662 18.4087 232.526 17.5575 233.532 16.8869C234.564 16.2163 235.892 15.881 237.517 15.881C238.961 15.881 240.2 16.2679 241.231 17.0417C242.263 17.8155 242.998 18.7569 243.437 19.8661C245.036 17.2093 247.409 15.881 250.556 15.881C252 15.881 253.2 16.2421 254.154 16.9643C255.134 17.6865 255.856 18.6151 256.321 19.75C256.785 20.8849 257.017 22.0714 257.017 23.3095V34.4524C257.017 34.9425 256.836 35.3552 256.475 35.6905C256.14 36.0258 255.727 36.1935 255.237 36.1935C254.747 36.1935 254.334 36.0258 253.999 35.6905C253.664 35.3552 253.496 34.9425 253.496 34.4524V24.006C253.496 22.3294 253.2 21.1042 252.606 20.3304C252.013 19.5308 250.994 19.131 249.55 19.131C248.234 19.131 247.138 19.4792 246.261 20.1756C245.41 20.8462 244.649 21.7361 243.978 22.8452V34.4524C243.978 34.9425 243.798 35.3552 243.437 35.6905C243.101 36.0258 242.689 36.1935 242.199 36.1935C241.708 36.1935 241.296 36.0258 240.96 35.6905C240.625 35.3552 240.457 34.9425 240.457 34.4524V24.006C240.457 22.3294 240.161 21.1042 239.568 20.3304C238.974 19.5308 237.955 19.131 236.511 19.131C235.196 19.131 234.099 19.4792 233.222 20.1756C232.371 20.8462 231.61 21.7361 230.94 22.8452V34.4524C230.94 34.9425 230.759 35.3552 230.398 35.6905C230.063 36.0258 229.65 36.1935 229.16 36.1935Z" fill="#424B4F"/>
</svg>
